<svg width="40px" height="40px" viewBox="-2.4 -2.4 28.80 28.80" fill="none" xmlns="http://www.w3.org/2000/svg" stroke="#f5f5f5">
    <g id="SVGRepo_bgCarrier" stroke-width="0">
    </g>
    <g id="SVGRepo_tracerCarrier" stroke-linecap="round" stroke-linejoin="round" stroke="#CCCCCC" stroke-width="1.104"> 
        <path opacity="0.15" d="M8 16H12L18 10L14 6L8 12V16Z" fill="#ffffff"></path> 
        <path d="M14 6L8 12V16H12L18 10M14 6L17 3L21 7L18 10M14 6L18 10M10 4L4 4L4 20L20 20V14" stroke="#ffffff" stroke-width="1.584" stroke-linecap="round" stroke-linejoin="round"></path> 
     </g>
    <g id="SVGRepo_iconCarrier"> 
        <path opacity="0.15" d="M8 16H12L18 10L14 6L8 12V16Z" fill="#ffffff"></path> 
        <path d="M14 6L8 12V16H12L18 10M14 6L17 3L21 7L18 10M14 6L18 10M10 4L4 4L4 20L20 20V14" stroke="#ffffff" stroke-width="1.584" stroke-linecap="round" stroke-linejoin="round"></path> 
    </g>
</svg>